<svg width="96" height="95" viewBox="0 0 96 95" fill="none" xmlns="http://www.w3.org/2000/svg">
<path fill-rule="evenodd" clip-rule="evenodd" d="M65.1558 10.8858H30.841C18.8829 10.8858 11.3858 19.3527 11.3858 31.3346V63.6662C11.3858 75.6481 18.8473 84.115 30.841 84.115H65.1518C77.1496 84.115 84.615 75.6481 84.615 63.6662V31.3346C84.615 19.3527 77.1496 10.8858 65.1558 10.8858Z" stroke="#FF6A88" stroke-width="6.5" stroke-linecap="round" stroke-linejoin="round"/>
<path fill-rule="evenodd" clip-rule="evenodd" d="M42.811 47.5004C42.811 51.5498 39.5296 54.8312 35.4802 54.8312C31.4308 54.8312 28.1494 51.5498 28.1494 47.5004C28.1494 43.451 31.4308 40.1696 35.4802 40.1696H35.4921C39.5335 40.1735 42.811 43.455 42.811 47.5004Z" stroke="#FF6A88" stroke-width="6.5" stroke-linecap="round" stroke-linejoin="round"/>
<path d="M42.8225 47.5004H67.8313V54.8312" stroke="#FF6A88" stroke-width="6.5" stroke-linecap="round" stroke-linejoin="round"/>
<path d="M56.6363 54.8316V47.5008" stroke="#FF6A88" stroke-width="6.5" stroke-linecap="round" stroke-linejoin="round"/>
</svg>
